HIERARCHY
ROOT Character1_Hips
{
	OFFSET 0.000000 86.858185 1.182688
	CHANNELS 6 Xposition Yposition Zposition Xrotation Yrotation Zrotation
	JOINT Character1_LeftUpLeg
	{
		OFFSET 7.276832 -6.057800 0.207883
		CHANNELS 6 Xposition Yposition Zposition Xrotation Yrotation Zrotation
		JOINT Character1_LeftLeg
		{
			OFFSET -1.823140 -35.110466 -1.568847
			CHANNELS 6 Xposition Yposition Zposition Xrotation Yrotation Zrotation
			JOINT Character1_LeftFoot
			{
				OFFSET -1.031196 -37.817070 -1.726818
				CHANNELS 6 Xposition Yposition Zposition Xrotation Yrotation Zrotation
				JOINT Character1_LeftToeBase
				{
					OFFSET 0.202457 -5.287532 8.122427
					CHANNELS 6 Xposition Yposition Zposition Xrotation Yrotation Zrotation
					End Site
					{
						OFFSET 0.009223 0.000047 9.693953
					}
				}
			}
		}
	}
	JOINT Character1_RightUpLeg
	{
		OFFSET -7.276832 -6.057770 0.207879
		CHANNELS 6 Xposition Yposition Zposition Xrotation Yrotation Zrotation
		JOINT Character1_RightLeg
		{
			OFFSET 1.823196 -35.109627 -1.587624
			CHANNELS 6 Xposition Yposition Zposition Xrotation Yrotation Zrotation
			JOINT Character1_RightFoot
			{
				OFFSET 1.031267 -37.817833 -1.710079
				CHANNELS 6 Xposition Yposition Zposition Xrotation Yrotation Zrotation
				JOINT Character1_RightToeBase
				{
					OFFSET -0.202449 -5.287759 8.122276
					CHANNELS 6 Xposition Yposition Zposition Xrotation Yrotation Zrotation
					End Site
					{
						OFFSET 0.001154 -0.000006 9.693956
					}
				}
			}
		}
	}
	JOINT Character1_Spine
	{
		OFFSET -0.000001 2.271347 0.818150
		CHANNELS 6 Xposition Yposition Zposition Xrotation Yrotation Zrotation
		JOINT Character1_Spine1
		{
			OFFSET -0.000001 9.085945 0.955446
			CHANNELS 6 Xposition Yposition Zposition Xrotation Yrotation Zrotation
			JOINT Character1_Spine2
			{
				OFFSET -0.000002 8.765564 -0.142866
				CHANNELS 6 Xposition Yposition Zposition Xrotation Yrotation Zrotation
				JOINT Character1_LeftShoulder
				{
					OFFSET 4.211487 11.612236 -3.873799
					CHANNELS 6 Xposition Yposition Zposition Xrotation Yrotation Zrotation
					JOINT Character1_LeftArm
					{
						OFFSET 5.543700 0.000031 -0.000005
						CHANNELS 6 Xposition Yposition Zposition Xrotation Yrotation Zrotation
						JOINT Character1_LeftForeArm
						{
							OFFSET 23.377409 -0.123474 0.033367
							CHANNELS 6 Xposition Yposition Zposition Xrotation Yrotation Zrotation
							JOINT Character1_LeftHand
							{
								OFFSET 16.247719 -0.118858 0.035829
								CHANNELS 6 Xposition Yposition Zposition Xrotation Yrotation Zrotation
								JOINT Character1_LeftHandThumb1
								{
									OFFSET 2.510399 -0.904045 2.091601
									CHANNELS 6 Xposition Yposition Zposition Xrotation Yrotation Zrotation
									JOINT Character1_LeftHandThumb2
									{
										OFFSET 2.570465 -1.130470 1.584520
										CHANNELS 6 Xposition Yposition Zposition Xrotation Yrotation Zrotation
										JOINT Character1_LeftHandThumb3
										{
											OFFSET 1.420841 -0.605858 0.842600
											CHANNELS 6 Xposition Yposition Zposition Xrotation Yrotation Zrotation
											JOINT Character1_LeftHandThumb4
											{
												OFFSET 2.153469 -0.757797 1.312965
												CHANNELS 6 Xposition Yposition Zposition Xrotation Yrotation Zrotation
												End Site
												{
													OFFSET 2.158772 -0.733734 1.317914
												}
											}
										}
									}
								}
								JOINT Character1_LeftHandIndex1
								{
									OFFSET 8.043888 0.989311 2.480770
									CHANNELS 6 Xposition Yposition Zposition Xrotation Yrotation Zrotation
									JOINT Character1_LeftHandIndex2
									{
										OFFSET 2.427021 0.011856 0.268371
										CHANNELS 6 Xposition Yposition Zposition Xrotation Yrotation Zrotation
										JOINT Character1_LeftHandIndex3
										{
											OFFSET 1.609932 0.007866 0.037315
											CHANNELS 6 Xposition Yposition Zposition Xrotation Yrotation Zrotation
											JOINT Character1_LeftHandIndex4
											{
												OFFSET 2.130016 0.049431 0.114431
												CHANNELS 6 Xposition Yposition Zposition Xrotation Yrotation Zrotation
												End Site
												{
													OFFSET 2.119099 0.211617 -0.131005
												}
											}
										}
									}
								}
								JOINT Character1_LeftHandMiddle1
								{
									OFFSET 8.038177 1.007423 0.439338
									CHANNELS 6 Xposition Yposition Zposition Xrotation Yrotation Zrotation
									JOINT Character1_LeftHandMiddle2
									{
										OFFSET 2.527046 -0.234444 -0.080977
										CHANNELS 6 Xposition Yposition Zposition Xrotation Yrotation Zrotation
										JOINT Character1_LeftHandMiddle3
										{
											OFFSET 1.931313 -0.179352 -0.117768
											CHANNELS 6 Xposition Yposition Zposition Xrotation Yrotation Zrotation
											JOINT Character1_LeftHandMiddle4
											{
												OFFSET 2.196999 0.041229 -0.161456
												CHANNELS 6 Xposition Yposition Zposition Xrotation Yrotation Zrotation
												End Site
												{
													OFFSET 2.197571 -0.071640 -0.141814
												}
											}
										}
									}
								}
								JOINT Character1_LeftHandRing1
								{
									OFFSET 7.662090 0.616508 -1.366725
									CHANNELS 6 Xposition Yposition Zposition Xrotation Yrotation Zrotation
									JOINT Character1_LeftHandRing2
									{
										OFFSET 2.249855 -0.592636 -0.461933
										CHANNELS 6 Xposition Yposition Zposition Xrotation Yrotation Zrotation
										JOINT Character1_LeftHandRing3
										{
											OFFSET 1.521790 -0.400856 -0.248318
											CHANNELS 6 Xposition Yposition Zposition Xrotation Yrotation Zrotation
											JOINT Character1_LeftHandRing4
											{
												OFFSET 2.446365 -0.396080 -0.528466
												CHANNELS 6 Xposition Yposition Zposition Xrotation Yrotation Zrotation
												End Site
												{
													OFFSET 2.437840 -0.527443 -0.446790
												}
											}
										}
									}
								}
								JOINT Character1_LeftHandPinky1
								{
									OFFSET 6.585136 -0.139000 -2.766160
									CHANNELS 6 Xposition Yposition Zposition Xrotation Yrotation Zrotation
									JOINT Character1_LeftHandPinky2
									{
										OFFSET 1.631428 -0.600632 -0.502815
										CHANNELS 6 Xposition Yposition Zposition Xrotation Yrotation Zrotation
										JOINT Character1_LeftHandPinky3
										{
											OFFSET 1.227242 -0.468956 -0.457904
											CHANNELS 6 Xposition Yposition Zposition Xrotation Yrotation Zrotation
											JOINT Character1_LeftHandPinky4
											{
												OFFSET 1.696033 -0.584229 -0.687828
												CHANNELS 6 Xposition Yposition Zposition Xrotation Yrotation Zrotation
												End Site
												{
													OFFSET 1.705387 -0.567787 -0.678411
												}
											}
										}
									}
								}
							}
						}
					}
				}
				JOINT Character1_RightShoulder
				{
					OFFSET -4.211487 11.612236 -3.873799
					CHANNELS 6 Xposition Yposition Zposition Xrotation Yrotation Zrotation
					JOINT Character1_RightArm
					{
						OFFSET -5.543744 0.000023 -0.000004
						CHANNELS 6 Xposition Yposition Zposition Xrotation Yrotation Zrotation
						JOINT Character1_RightForeArm
						{
							OFFSET -23.377581 -0.123566 0.033386
							CHANNELS 6 Xposition Yposition Zposition Xrotation Yrotation Zrotation
							JOINT Character1_RightHand
							{
								OFFSET -16.247574 -0.118851 0.036247
								CHANNELS 6 Xposition Yposition Zposition Xrotation Yrotation Zrotation
								JOINT Character1_RightHandThumb1
								{
									OFFSET -2.510384 -0.904091 2.091566
									CHANNELS 6 Xposition Yposition Zposition Xrotation Yrotation Zrotation
									JOINT Character1_RightHandThumb2
									{
										OFFSET -2.579426 -1.121681 1.537416
										CHANNELS 6 Xposition Yposition Zposition Xrotation Yrotation Zrotation
										JOINT Character1_RightHandThumb3
										{
											OFFSET -1.429546 -0.616760 0.819528
											CHANNELS 6 Xposition Yposition Zposition Xrotation Yrotation Zrotation
											JOINT Character1_RightHandThumb4
											{
												OFFSET -2.167622 -0.774658 1.279505
												CHANNELS 6 Xposition Yposition Zposition Xrotation Yrotation Zrotation
												End Site
												{
													OFFSET -2.137974 -0.606712 1.413074
												}
											}
										}
									}
								}
								JOINT Character1_RightHandIndex1
								{
									OFFSET -8.043800 0.988876 2.481294
									CHANNELS 6 Xposition Yposition Zposition Xrotation Yrotation Zrotation
									JOINT Character1_RightHandIndex2
									{
										OFFSET -2.426987 0.011948 0.268470
										CHANNELS 6 Xposition Yposition Zposition Xrotation Yrotation Zrotation
										JOINT Character1_RightHandIndex3
										{
											OFFSET -1.609989 0.007927 0.037374
											CHANNELS 6 Xposition Yposition Zposition Xrotation Yrotation Zrotation
											JOINT Character1_RightHandIndex4
											{
												OFFSET -2.129982 0.049034 0.114512
												CHANNELS 6 Xposition Yposition Zposition Xrotation Yrotation Zrotation
												End Site
												{
													OFFSET -2.123772 0.204735 0.006035
												}
											}
										}
									}
								}
								JOINT Character1_RightHandMiddle1
								{
									OFFSET -8.038174 1.006859 0.439860
									CHANNELS 6 Xposition Yposition Zposition Xrotation Yrotation Zrotation
									JOINT Character1_RightHandMiddle2
									{
										OFFSET -2.526997 -0.234062 -0.080875
										CHANNELS 6 Xposition Yposition Zposition Xrotation Yrotation Zrotation
										JOINT Character1_RightHandMiddle3
										{
											OFFSET -1.931465 -0.179070 -0.117694
											CHANNELS 6 Xposition Yposition Zposition Xrotation Yrotation Zrotation
											JOINT Character1_RightHandMiddle4
											{
												OFFSET -2.196987 0.042816 -0.161370
												CHANNELS 6 Xposition Yposition Zposition Xrotation Yrotation Zrotation
												End Site
												{
													OFFSET -2.184029 -0.187660 -0.222307
												}
											}
										}
									}
								}
								JOINT Character1_RightHandRing1
								{
									OFFSET -7.662136 0.615837 -1.366219
									CHANNELS 6 Xposition Yposition Zposition Xrotation Yrotation Zrotation
									JOINT Character1_RightHandRing2
									{
										OFFSET -2.249901 -0.592049 -0.461829
										CHANNELS 6 Xposition Yposition Zposition Xrotation Yrotation Zrotation
										JOINT Character1_RightHandRing3
										{
											OFFSET -1.521889 -0.400475 -0.248259
											CHANNELS 6 Xposition Yposition Zposition Xrotation Yrotation Zrotation
											JOINT Character1_RightHandRing4
											{
												OFFSET -2.446423 -0.395401 -0.528361
												CHANNELS 6 Xposition Yposition Zposition Xrotation Yrotation Zrotation
												End Site
												{
													OFFSET -2.430859 -0.503899 -0.507441
												}
											}
										}
									}
								}
								JOINT Character1_RightHandPinky1
								{
									OFFSET -6.585262 -0.139153 -2.765680
									CHANNELS 6 Xposition Yposition Zposition Xrotation Yrotation Zrotation
									JOINT Character1_RightHandPinky2
									{
										OFFSET -1.631413 -0.601036 -0.502742
										CHANNELS 6 Xposition Yposition Zposition Xrotation Yrotation Zrotation
										JOINT Character1_RightHandPinky3
										{
											OFFSET -1.227207 -0.469040 -0.457860
											CHANNELS 6 Xposition Yposition Zposition Xrotation Yrotation Zrotation
											JOINT Character1_RightHandPinky4
											{
												OFFSET -1.696110 -0.584045 -0.687750
												CHANNELS 6 Xposition Yposition Zposition Xrotation Yrotation Zrotation
												End Site
												{
													OFFSET -1.689350 -0.584435 -0.703875
												}
											}
										}
									}
								}
							}
						}
					}
				}
				JOINT Character1_Neck
				{
					OFFSET -0.000001 15.167763 -4.080687
					CHANNELS 6 Xposition Yposition Zposition Xrotation Yrotation Zrotation
					JOINT Character1_Head
					{
						OFFSET -0.000001 7.825302 -0.202157
						CHANNELS 6 Xposition Yposition Zposition Xrotation Yrotation Zrotation
						End Site
						{
							OFFSET -0.242856 15.320236 -2.107584
						}
					}
				}
				JOINT J_R_Mune_00
				{
					OFFSET -2.925001 2.684891 0.061887
					CHANNELS 6 Xposition Yposition Zposition Xrotation Yrotation Zrotation
					JOINT J_R_Mune_01
					{
						OFFSET -7.794388 2.801010 16.635391
						CHANNELS 6 Xposition Yposition Zposition Xrotation Yrotation Zrotation
						JOINT J_R_Mune_02
						{
							OFFSET 6.838630 -2.377007 -14.605499
							CHANNELS 6 Xposition Yposition Zposition Xrotation Yrotation Zrotation
							End Site
							{
								OFFSET -14.795670 -0.834061 -6.791919
							}
						}
					}
				}
				JOINT J_L_Mune_00
				{
					OFFSET 2.925019 2.684776 0.061883
					CHANNELS 6 Xposition Yposition Zposition Xrotation Yrotation Zrotation
					JOINT J_L_Mune_01
					{
						OFFSET 7.794374 2.801254 16.635433
						CHANNELS 6 Xposition Yposition Zposition Xrotation Yrotation Zrotation
						JOINT J_L_Mune_02
						{
							OFFSET -6.838619 -2.376648 -14.605538
							CHANNELS 3 Xrotation Yrotation Zrotation
							End Site
							{
								OFFSET 14.795649 -0.834076 -6.791907
							}
						}
					}
				}
			}
		}
	}
}
MOTION
Frames: 3
Frame Time: 0.033333
4.303293 86.362259 5.770251 -1.392385 7.683496 0.398965 7.276834 -6.057807 0.207883 6.074608 -12.638253 4.120570 -1.823140 -35.110474 -1.568846 4.743922 17.000018 0.090373 -1.031192 -37.817066 -1.726819 -7.928862 0.901085 -5.969586 0.202457 -5.287531 8.122426 0.000004 0.000215 -0.013495 -7.276832 -6.057788 0.207877 1.208169 0.223146 -10.127655 1.823199 -35.109623 -1.587623 3.362091 -0.554455 0.571817 1.031263 -37.817829 -1.710081 -2.961369 -0.749878 9.375503 -0.202447 -5.287760 8.122277 0.000053 -0.000156 -0.222311 -0.000001 2.271317 0.818148 -0.000001 -0.000272 0.000198 -0.000001 9.085935 0.955445 -3.694378 -1.432479 0.048519 -0.000003 8.765567 -0.142870 3.373661 0.071578 1.218514 4.211488 11.612254 -3.873801 0.000155 -0.000278 -2.457592 5.543701 0.000024 -0.000006 22.531775 -4.642498 -69.769713 23.377403 -0.123469 0.033362 -13.703574 -20.183202 -1.979502 16.247717 -0.118850 0.035829 3.689316 -5.480492 14.903182 2.510409 -0.904040 2.091605 -2.573562 -1.715417 7.431990 2.570468 -1.130465 1.584520 4.641388 14.920058 2.293047 1.420842 -0.605867 0.842596 5.373691 23.291310 2.709194 2.153470 -0.757804 1.312968 -0.000504 0.001059 -0.006091 8.043897 0.989312 2.480772 3.066905 13.710542 1.532388 2.427025 0.011857 0.268371 0.423053 -0.045492 -18.415474 1.609927 0.007866 0.037315 1.369406 0.272063 -24.433059 2.130013 0.049428 0.114429 -0.003244 -0.004246 -0.000938 8.038182 1.007434 0.439341 -0.329454 1.965115 -5.254585 2.527052 -0.234452 -0.080974 -1.320204 0.340382 -23.304684 1.931325 -0.179337 -0.117769 -2.195028 0.974616 -33.186352 2.197013 0.041226 -0.161456 -0.003101 -0.003937 0.001103 7.662096 0.616507 -1.366726 -11.465005 -5.992403 -0.178515 2.249869 -0.592632 -0.461927 -0.738322 1.112438 -28.733913 1.521792 -0.400865 -0.248317 -6.831729 4.426366 -25.212465 2.446373 -0.396073 -0.528472 -0.003441 -0.001549 0.000882 6.585150 -0.138996 -2.766154 -6.188431 -18.307900 5.996327 1.631427 -0.600632 -0.502819 -3.494297 1.741884 -11.169998 1.227226 -0.468953 -0.457898 -10.862922 8.683063 -35.889342 1.696038 -0.584240 -0.687825 -0.000644 -0.000238 -0.000269 -4.211487 11.612244 -3.873802 0.000127 0.000248 -0.000072 -5.543744 0.000026 -0.000005 18.378953 -6.249845 69.707927 -23.377577 -0.123559 0.033386 -21.256776 15.839361 2.473949 -16.247581 -0.118852 0.036246 18.814844 -3.706286 -1.482660 -2.510380 -0.904112 2.091558 -7.055673 -0.039525 -13.731499 -2.579423 -1.121676 1.537417 6.117665 -19.520488 -2.673282 -1.429542 -0.616754 0.819532 7.326751 -30.564834 -3.014719 -2.167630 -0.774655 1.279512 0.009693 0.003676 -0.006428 -8.043810 0.988873 2.481291 2.009621 -9.925596 11.498730 -2.426999 0.011951 0.268470 0.065822 -0.000142 28.214140 -1.609993 0.007921 0.037373 0.000525 -0.000314 5.297948 -2.129982 0.049033 0.114509 -0.001034 -0.008915 0.004797 -8.038173 1.006850 0.439860 1.626859 0.054677 4.583865 -2.527014 -0.234057 -0.080874 -1.121599 -0.260983 37.373310 -1.931453 -0.179054 -0.117691 -1.772022 -1.184780 47.582574 -2.196990 0.042810 -0.161364 -0.000987 -0.002870 -0.003717 -7.662141 0.615828 -1.366220 -0.911380 14.832034 6.673687 -2.249890 -0.592032 -0.461827 -0.411933 -0.168551 26.029936 -1.521869 -0.400471 -0.248254 -4.277678 -1.878532 44.397199 -2.446426 -0.395403 -0.528365 0.004793 0.000936 0.007251 -6.585258 -0.139166 -2.765689 -20.673675 14.545323 1.425909 -1.631421 -0.601027 -0.502748 -4.387668 -2.335279 14.215319 -1.227205 -0.469043 -0.457856 -10.411739 -11.507355 39.806660 -1.696105 -0.584036 -0.687759 0.004203 0.003763 -0.005227 0.000000 15.167785 -4.080688 2.505807 -3.196619 -2.737743 -0.000001 7.825322 -0.202157 2.510659 -3.097533 -2.829155 -2.925001 2.684891 0.061884 -0.000003 -0.000002 -0.000000 -7.794387 2.801017 16.635380 0.000001 -0.000002 0.000001 6.838630 -2.376991 -14.605495 -0.000000 0.000005 0.000000 2.925019 2.684799 0.061878 -0.000002 -0.000002 -0.000000 7.794374 2.801239 16.635426 -0.000001 -0.000007 0.000002 0.000001 -0.000003 -0.000000 
3.766579 86.379768 5.759560 -1.437295 6.234830 0.026853 7.276832 -6.057805 0.207884 6.461216 -12.525454 4.678138 -1.823139 -35.110466 -1.568846 4.648482 18.373262 0.216753 -1.031195 -37.817066 -1.726820 -7.790469 0.947732 -6.485547 0.202455 -5.287531 8.122425 -0.750068 0.000228 -0.013516 -7.276830 -6.057786 0.207879 0.821543 0.301130 -9.562974 1.823197 -35.109615 -1.587623 3.415668 0.829925 0.901992 1.031264 -37.817837 -1.710082 -2.828550 -0.688446 8.752883 -0.202449 -5.287760 8.122276 0.000054 -0.000146 -0.222318 -0.000001 2.271318 0.818149 -0.025821 -0.354709 0.081797 -0.000002 9.085938 0.955445 -3.589611 -2.104024 0.041838 -0.000003 8.765574 -0.142872 3.495728 -0.600682 1.245477 4.211489 11.612230 -3.873797 0.000155 -0.000272 -2.457602 5.543697 0.000024 -0.000008 22.225267 -5.446714 -69.431325 23.377399 -0.123470 0.033366 -13.681839 -20.015632 -1.938324 16.247726 -0.118867 0.035829 4.991226 -4.434607 16.830645 2.510397 -0.904052 2.091606 -2.573620 -1.715415 7.431995 2.570466 -1.130457 1.584514 4.641417 14.920043 2.293011 1.420842 -0.605857 0.842592 5.373726 23.291300 2.709203 2.153474 -0.757809 1.312967 -0.000552 0.001096 -0.006113 8.043884 0.989300 2.480768 3.066833 13.710507 1.532288 2.427026 0.011876 0.268371 0.423077 -0.045473 -18.415536 1.609937 0.007875 0.037315 1.369430 0.271906 -24.433053 2.130015 0.049442 0.114429 -0.003252 -0.004099 -0.001077 8.038162 1.007428 0.439334 -0.329501 1.965090 -5.254586 2.527048 -0.234440 -0.080973 -1.320204 0.340360 -23.304752 1.931320 -0.179341 -0.117769 -2.195029 0.974678 -33.186400 2.196972 0.041217 -0.161453 -0.003081 -0.003968 0.001101 7.662083 0.616489 -1.366729 -11.465077 -5.992408 -0.178518 2.249854 -0.592647 -0.461931 -0.738306 1.112433 -28.733964 1.521789 -0.400861 -0.248314 -6.831716 4.426428 -25.212474 2.446376 -0.396080 -0.528468 -0.003464 -0.001586 0.000967 6.585131 -0.138999 -2.766160 -6.188496 -18.307941 5.996271 1.631420 -0.600627 -0.502812 -3.494316 1.741912 -11.169981 1.227255 -0.468945 -0.457909 -10.862857 8.683027 -35.889301 1.696021 -0.584234 -0.687828 -0.000745 -0.000115 -0.000322 -4.211487 11.612238 -3.873797 0.000149 0.000258 -0.000087 -5.543733 0.000015 -0.000003 18.323354 -6.386277 69.682266 -23.377571 -0.123554 0.033382 -23.022749 14.594227 2.466904 -16.247578 -0.118842 0.036252 19.776951 -3.520971 -2.106676 -2.510390 -0.904111 2.091562 -7.055629 -0.039527 -13.731412 -2.579431 -1.121689 1.537419 6.117663 -19.520510 -2.673203 -1.429556 -0.616763 0.819533 7.326721 -30.564840 -3.014707 -2.167619 -0.774667 1.279507 0.009615 0.003647 -0.006469 -8.043801 0.988863 2.481296 2.009701 -9.925631 11.498819 -2.426987 0.011944 0.268467 0.065772 -0.000132 28.214092 -1.610009 0.007922 0.037377 0.000610 -0.000288 5.297957 -2.129991 0.049049 0.114510 -0.001045 -0.008863 0.004755 -8.038183 1.006851 0.439860 1.626625 0.054943 4.584002 -2.526996 -0.234059 -0.080875 -1.121361 -0.261243 37.373204 -1.931476 -0.179066 -0.117691 -1.772038 -1.184770 47.582598 -2.196986 0.042817 -0.161371 -0.000972 -0.002864 -0.003755 -7.662136 0.615832 -1.366217 -0.911377 14.832060 6.673672 -2.249889 -0.592040 -0.461828 -0.411919 -0.168568 26.029948 -1.521896 -0.400478 -0.248255 -4.277664 -1.878531 44.397100 -2.446415 -0.395393 -0.528365 0.004874 0.000982 0.007238 -6.585265 -0.139164 -2.765685 -20.673676 14.545263 1.425969 -1.631416 -0.601031 -0.502748 -4.387639 -2.335199 14.215253 -1.227213 -0.469051 -0.457861 -10.411796 -11.507452 39.806756 -1.696124 -0.584057 -0.687749 0.004262 0.003798 -0.005275 -0.000001 15.167754 -4.080685 2.603103 -1.886047 -2.964324 -0.000000 7.825308 -0.202158 2.531089 -2.279361 -2.935627 -2.925001 2.684883 0.061889 -0.000003 -0.000000 0.000000 -7.794384 2.801010 16.635386 -0.000000 0.000003 0.000000 6.838633 -2.377007 -14.605500 -0.000001 0.000002 -0.000001 2.925019 2.684792 0.061883 -0.000001 0.000002 -0.000000 7.794373 2.801247 16.635424 0.000000 -0.000000 0.000000 -0.000000 0.000007 -0.000001 
3.202531 86.390038 5.748959 -1.502622 4.809814 -0.327229 7.276833 -6.057814 0.207882 6.683471 -12.480196 5.158964 -1.823140 -35.110466 -1.568847 4.877688 19.761093 0.413387 -1.031196 -37.817074 -1.726821 -7.616778 1.004003 -7.105280 0.202457 -5.287532 8.122425 -1.562678 0.000185 -0.013514 -7.276832 -6.057791 0.207880 0.309836 0.349954 -8.986902 1.823198 -35.109619 -1.587624 3.770434 2.258885 1.232884 1.031264 -37.817825 -1.710081 -2.841018 -0.648478 8.105683 -0.202447 -5.287760 8.122278 0.000042 -0.000138 -0.222292 -0.000001 2.271338 0.818150 -0.076632 -0.653654 0.162107 -0.000001 9.085948 0.955445 -3.478444 -2.823542 0.023399 -0.000002 8.765570 -0.142870 3.627060 -1.322540 1.272244 4.211487 11.612246 -3.873801 0.000117 -0.000303 -2.457594 5.543694 0.000030 -0.000008 21.464264 -6.557126 -68.860608 23.377396 -0.123475 0.033365 -13.621163 -19.559794 -1.824526 16.247721 -0.118850 0.035829 6.353915 -3.254536 18.847620 2.510383 -0.904057 2.091609 -2.573573 -1.715396 7.432022 2.570472 -1.130471 1.584518 4.641376 14.920075 2.293003 1.420845 -0.605862 0.842597 5.373700 23.291331 2.709243 2.153474 -0.757797 1.312958 -0.000571 0.001069 -0.006080 8.043879 0.989298 2.480773 3.066819 13.710552 1.532271 2.427026 0.011864 0.268370 0.423087 -0.045467 -18.415544 1.609946 0.007862 0.037317 1.369438 0.271929 -24.432971 2.130033 0.049439 0.114434 -0.003247 -0.004143 -0.001112 8.038163 1.007417 0.439339 -0.329494 1.965121 -5.254570 2.527048 -0.234421 -0.080975 -1.320187 0.340379 -23.304718 1.931320 -0.179342 -0.117772 -2.195074 0.974659 -33.186274 2.197017 0.041239 -0.161456 -0.003064 -0.003959 0.001101 7.662085 0.616490 -1.366727 -11.465089 -5.992382 -0.178529 2.249868 -0.592626 -0.461931 -0.738307 1.112463 -28.734107 1.521791 -0.400859 -0.248313 -6.831727 4.426396 -25.212410 2.446370 -0.396077 -0.528471 -0.003451 -0.001557 0.000981 6.585121 -0.139006 -2.766162 -6.188471 -18.307909 5.996387 1.631427 -0.600639 -0.502829 -3.494337 1.741921 -11.170163 1.227233 -0.468951 -0.457910 -10.862887 8.683068 -35.889331 1.696027 -0.584232 -0.687822 -0.000677 -0.000112 -0.000294 -4.211487 11.612253 -3.873801 0.000191 0.000235 -0.000076 -5.543741 0.000006 -0.000004 18.252245 -6.538643 69.547766 -23.377579 -0.123564 0.033376 -24.629705 13.467451 2.457852 -16.247580 -0.118849 0.036249 20.792353 -3.331930 -2.788001 -2.510387 -0.904108 2.091564 -7.055670 -0.039502 -13.731401 -2.579439 -1.121681 1.537425 6.117628 -19.520506 -2.673280 -1.429549 -0.616766 0.819540 7.326702 -30.564864 -3.014745 -2.167620 -0.774654 1.279508 0.009711 0.003689 -0.006350 -8.043797 0.988876 2.481293 2.009147 -9.925200 11.498886 -2.426997 0.011935 0.268468 0.066255 -0.000591 28.213918 -1.609991 0.007917 0.037372 0.000561 -0.000268 5.297933 -2.129978 0.049033 0.114507 -0.001007 -0.008872 0.004699 -8.038184 1.006859 0.439859 1.626570 0.055064 4.583989 -2.526991 -0.234050 -0.080876 -1.121277 -0.261325 37.373286 -1.931450 -0.179066 -0.117692 -1.772054 -1.184712 47.582564 -2.196999 0.042823 -0.161369 -0.000971 -0.002861 -0.003756 -7.662148 0.615829 -1.366217 -0.911372 14.832090 6.673651 -2.249898 -0.592047 -0.461827 -0.411897 -0.168541 26.029880 -1.521896 -0.400481 -0.248257 -4.277640 -1.878385 44.397172 -2.446413 -0.395405 -0.528362 0.004724 0.000928 0.007231 -6.585262 -0.139157 -2.765695 -20.673724 14.545342 1.426031 -1.631410 -0.601031 -0.502738 -4.387615 -2.335228 14.215220 -1.227205 -0.469039 -0.457861 -10.411741 -11.507404 39.806745 -1.696107 -0.584056 -0.687747 0.004230 0.003781 -0.005277 -0.000001 15.167782 -4.080690 2.697641 -0.504008 -3.163642 0.000000 7.825306 -0.202154 2.556608 -1.461271 -3.035917 -2.925001 2.684906 0.061883 0.000001 -0.000000 0.000000 -7.794386 2.801010 16.635382 0.000001 -0.000001 0.000000 6.838629 -2.376999 -14.605499 0.000001 -0.000002 0.000000 2.925018 2.684799 0.061878 0.000003 0.000002 -0.000000 7.794374 2.801270 16.635426 -0.000001 0.000002 0.000000 0.000002 0.000002 -0.000000 
